<svg width="48" height="48" viewBox="0 0 48 48" fill="none" xmlns="http://www.w3.org/2000/svg">
<path d="M35.5435 18.9844H24.3461V0.527957C24.3438 0.403073 24.303 0.282752 24.2304 0.186794C24.1578 0.0908361 24.0577 0.0249583 23.9465 1.10169e-06H23.8266C23.733 -0.000205172 23.6413 0.0285585 23.5618 0.0830119C23.4823 0.137465 23.4183 0.215416 23.3771 0.307975L11.0509 27.3547C11.0136 27.4386 10.9963 27.5317 11.0007 27.625C11.005 27.7183 11.0309 27.8089 11.0759 27.8882C11.1209 27.9674 11.1835 28.0328 11.2578 28.078C11.332 28.1232 11.4156 28.1468 11.5004 28.1467H22.9476V47.461C22.9471 47.5863 22.9854 47.708 23.0563 47.806C23.1271 47.904 23.2262 47.9724 23.3372 48H23.4471C23.5407 48.0002 23.6324 47.9714 23.7119 47.917C23.7914 47.8625 23.8554 47.7846 23.8966 47.692L35.9331 19.8093C35.9768 19.726 35.9999 19.6315 36 19.5352C36.0001 19.4389 35.9773 19.3443 35.9339 19.2608C35.8904 19.1773 35.8277 19.1078 35.7522 19.0593C35.6767 19.0108 35.591 18.985 35.5036 18.9844H35.5435Z" fill="url(#paint0_linear)"/>
<defs>
<linearGradient id="paint0_linear" x1="18.2629" y1="49.2649" x2="30.599" y2="-0.457423" gradientUnits="userSpaceOnUse">
<stop stop-color="#A5FFDE"/>
<stop offset="1" stop-color="#0066FF"/>
</linearGradient>
</defs>
</svg>
